<svg width="99" height="141" viewBox="0 0 99 141" fill="none" xmlns="http://www.w3.org/2000/svg">
<path d="M49.1744 1.5C22.8217 1.5 1.5 21.1388 1.5 45.3395C1.5 69.5401 49.1744 138.895 49.1744 138.895C49.1744 138.895 96.8488 69.5401 96.8488 45.3395C96.8488 21.1388 75.5271 1.5 49.1744 1.5Z" stroke="white" stroke-width="3" stroke-miterlimit="10" stroke-linejoin="round"/>
<path d="M48.7866 7.64062C26.5047 7.64062 8.47656 24.6463 8.47656 45.6022C8.47656 66.558 48.7866 126.614 48.7866 126.614C48.7866 126.614 89.0967 66.558 89.0967 45.6022C89.0967 24.6463 71.0686 7.64062 48.7866 7.64062Z" fill="white"/>
<path d="M34.3158 55.8033C34.2812 55.8638 34.2524 55.9331 34.1831 56.0542C33.4051 54.7661 33.1767 53.3432 32.8988 51.9401C32.8493 51.9224 32.791 51.9104 32.7473 51.9014C32.5805 52.3257 32.3583 52.7235 32.2586 53.1541C31.9134 54.5642 32.0224 55.9777 32.3672 57.387C32.789 59.0603 33.2109 60.7336 33.5716 62.4094C33.84 63.6677 33.9978 64.9483 33.7219 66.2373C33.4204 67.6564 32.7856 68.8039 31.3383 69.3405C30.6931 69.5761 30.058 69.4904 29.4711 69.159C28.8987 68.8306 28.823 68.2511 29.3159 67.8263C29.6087 67.5708 29.9421 67.3011 30.3025 67.1648C31.0145 66.8979 31.3788 66.394 31.4335 65.6909C31.4856 65.04 31.5054 64.3599 31.3887 63.7193C31.0656 62.0062 30.6786 60.31 30.2683 58.6164C29.8074 56.7171 29.5359 54.819 29.8639 52.8791C30.1495 51.1935 30.8848 49.766 32.2361 48.6758C32.3347 48.5984 32.4246 48.5267 32.5232 48.4492C32.5841 48.4092 32.6422 48.3835 32.7526 48.3235C32.8387 48.6571 32.9072 48.9644 32.9844 49.266C33.4337 47.133 33.5622 44.8963 35.3593 43.2739C38.0046 44.7434 39.4747 47.0235 40.0716 49.9284C40.5936 46.6148 38.5877 44.3221 36.6279 41.9486C37.1156 41.6656 37.5772 41.3997 38.0388 41.1339C38.4308 40.9139 38.8227 40.6938 39.2175 40.4593C40.1059 39.9505 40.1321 39.9334 40.7362 40.7946C41.3022 41.6179 41.7987 42.487 42.3153 43.3303C42.4122 43.4931 42.5004 43.6616 42.6467 43.8045C42.5459 42.2725 41.9101 40.916 41.1346 39.5383C42.0173 39.0584 42.8767 38.5812 43.7596 38.139C43.8787 38.0733 44.1209 38.1908 44.2699 38.2816C45.955 39.3128 46.9441 40.8774 47.6315 42.6656C47.8379 43.1968 48.0183 43.7452 48.2568 44.268C48.2462 41.5816 46.8725 39.389 45.4665 37.1296C46.4677 36.4711 47.4428 35.8297 48.4788 35.1483C49.4652 36.186 50.0514 37.5248 50.6928 38.8523C50.7516 37.8193 50.4674 36.8736 49.9592 35.987C49.78 35.6644 49.5921 35.3475 49.378 35.0478C49.117 34.6783 49.1212 34.3483 49.4427 34.0235C50.0917 33.3827 50.7289 32.7245 51.3779 32.0837C53.9689 33.7525 55.5235 36.0275 56.1118 38.9757C56.2496 37.4252 55.8318 35.9632 55.2598 34.5522C54.6907 33.1267 53.7675 31.9216 52.6089 30.7958C53.9248 29.6156 55.1944 28.4786 56.4988 27.3186C57.7081 28.6879 58.7048 30.021 59.1847 31.6687C59.0534 29.8672 58.457 28.2331 57.2935 26.7078C57.9122 26.4142 58.4551 26.12 59.0218 25.8983C59.1439 25.8558 59.3687 25.9848 59.5235 26.0843C60.2041 26.5177 60.9303 26.7574 61.757 26.7171C60.8039 26.5134 60.2677 25.8466 59.8445 25.0677C59.5419 24.5242 59.7412 24.2043 60.3349 24.1537C61.3243 24.0566 62.3049 23.9277 63.2824 23.7756C63.9545 23.6734 64.6027 23.461 65.2748 23.3588C66.2901 23.207 67.223 23.4367 68.1657 23.8864C68.872 24.2274 69.6995 24.3376 70.4892 24.4852C70.9702 24.5842 71.4147 24.984 71.4346 25.4618C71.445 25.7948 71.4641 26.122 71.5065 26.4465C71.6305 27.3593 71.3519 28.1214 70.7235 28.8116C70.6649 28.7243 70.6151 28.669 70.5827 28.6022C70.2939 27.9111 70.2998 27.9198 69.5785 28.0796C68.8951 28.2396 68.2382 28.4577 67.7694 29.0304C67.2283 29.7009 67.1711 30.4936 67.6545 31.0819C68.0442 31.5681 69.1163 31.7062 69.7522 31.3635C69.8713 31.2978 69.9903 31.232 70.1094 31.1663C70.4303 31.8866 70.3225 32.4358 69.7513 32.9121C69.2989 33.2852 68.8027 33.6115 68.2864 34.0015C67.6906 33.6382 67.0568 33.237 66.4057 32.8849C65.7401 32.5298 65.0487 32.2671 64.1736 32.5155C64.5122 32.683 64.7662 32.818 65.1165 33.0029C63.6753 33.5858 62.7074 34.4993 62.1729 35.908C61.9869 35.3885 61.8067 34.8777 61.5853 34.2682C61.3538 37.4536 63.8531 41.7502 68.7491 43.2245C68.5224 43.2981 68.345 43.3518 68.1648 43.42C68.1709 43.4664 68.1682 43.5184 68.1743 43.5648C68.381 43.5547 68.582 43.5736 68.7797 43.5316C69.4603 43.386 70.132 43.2085 70.8185 43.0717C71.4816 42.9376 72.0823 43.1214 72.7076 43.566C71.8283 44.1443 71.0187 44.6768 70.2177 45.2036C69.5328 45.6415 68.8537 46.0882 68.1571 46.5086C68.0206 46.5858 67.7878 46.613 67.6565 46.5484C64.9012 45.2141 61.981 44.6429 58.9556 44.6064C57.9715 44.5992 57.0939 44.3584 56.2903 43.7794C56.077 43.6302 55.8291 43.5415 55.5319 43.5104C55.8627 43.8718 56.1849 44.2388 56.5772 44.673C52.9141 45.1819 49.5893 46.3995 46.5364 48.3949C46.1457 47.7205 45.7786 47.081 45.4173 46.4502C45.3853 46.4587 45.362 46.4614 45.33 46.4698C45.3834 46.6613 45.4194 46.8642 45.496 47.0529C45.8736 48.0254 45.7998 48.9801 45.4932 49.9621C44.791 52.1859 43.3174 53.8599 41.7388 55.4897C40.864 56.3923 40.0829 57.3968 39.3134 58.3812C38.7261 59.1325 38.422 60.0247 38.4065 60.9915C38.4072 61.142 38.3614 61.298 38.3304 61.4946C38.1727 61.4095 38.0414 61.3448 37.8778 61.251C37.8928 61.3293 37.8901 61.3814 37.9077 61.4076C38.6701 62.4668 39.6082 63.1712 41.0133 62.9267C41.5311 62.8379 42.0236 62.9167 42.4426 63.4466C42.2511 63.5726 42.0682 63.6928 41.8941 63.8073C40.5447 64.6949 39.1894 65.5737 37.8604 66.473C37.5557 66.6734 37.3721 66.6431 37.0858 66.4413C36.0747 65.7218 35.4466 64.7128 34.8707 63.6694C34.6591 63.28 34.6012 62.7643 34.6076 62.307C34.6118 60.8191 34.7004 59.3261 34.6987 57.8295C34.704 57.1464 34.5579 56.4622 34.4875 55.7785C34.4294 55.8041 34.3769 55.8008 34.3158 55.8033ZM65.5149 24.7992C65.5066 24.8802 65.507 24.9555 65.4987 25.0365C65.9506 25.1672 66.3999 25.3499 66.8632 25.4227C67.0322 25.45 67.2406 25.1997 67.4321 25.0737C67.2626 24.9335 67.0952 24.666 66.9293 24.6619C66.4546 24.6469 65.9805 24.7447 65.5149 24.7992Z" fill="#20113D"/>
<path d="M47.7509 54.9092C47.6753 54.9087 47.5036 54.8959 47.239 54.894C48.0042 55.5474 48.8158 55.5792 49.6269 55.4983C50.592 55.404 51.551 55.2258 52.5161 55.1315C53.0859 55.0836 53.6363 55.2119 53.997 55.8045C53.8724 55.8991 53.7623 55.9966 53.6406 56.0767C52.1968 57.0266 50.759 57.9852 49.2948 58.9233C49.0948 59.0549 48.7779 59.0874 48.5363 59.0451C47.8115 58.9184 47.1038 58.7427 46.3875 58.5727C45.5488 58.3699 45.0346 57.9035 44.9633 56.9948C44.9414 56.6822 44.7682 56.3686 44.6039 56.0869C44.2784 55.5466 43.9094 55.0348 43.5402 54.4855C44.8866 53.2602 45.4515 51.6185 46.0717 50.0033C46.3446 49.3082 46.7844 48.8428 47.4868 48.5442C48.063 49.1962 48.5433 49.8736 48.3357 50.815C48.2473 51.1875 48.1531 51.5512 48.0998 51.9384C47.9795 52.8978 47.8709 53.8746 47.7509 54.9092Z" fill="#20113D"/>
<path d="M52.2179 46.2194C53.9814 45.8764 55.6026 45.5641 57.2789 45.2407C57.5374 46.9315 57.0573 48.643 57.8271 50.2362C57.5658 50.3326 57.3307 50.4119 57.0927 50.5057C57.0959 50.5664 57.1078 50.6214 57.111 50.6822C57.4832 50.6762 57.8701 50.7108 58.2333 50.6353C58.8259 50.5095 59.386 50.2792 59.9756 50.1302C60.6437 49.9673 61.1627 50.2544 61.6394 50.7958C61.0742 51.1677 60.5263 51.5281 59.9872 51.8828C59.0045 52.5293 58.0336 53.1933 57.0334 53.8136C56.8536 53.9193 56.5396 53.9373 56.3328 53.8722C55.5028 53.6262 54.9415 53.0148 54.6266 52.2664C53.7939 50.2997 53.0366 48.2959 52.2179 46.2194Z" fill="#20113D"/>
</svg>
